<?xml version="1.0" encoding="utf-8"?>
<!-- Generator: Adobe Illustrator 21.1.0, SVG Export Plug-In . SVG Version: 6.00 Build 0)  -->
<svg version="1.1" id="Layer_1" xmlns="http://www.w3.org/2000/svg" xmlns:xlink="http://www.w3.org/1999/xlink" x="0px" y="0px"
	 viewBox="0 0 909 224" style="enable-background:new 0 0 909 224;" xml:space="preserve">
<style type="text/css">
	.st0{fill:none;stroke:#3F4749;stroke-width:2;stroke-linecap:round;stroke-linejoin:round;stroke-miterlimit:10;}
	.st1{fill:#C4CBCC;stroke:#3F4749;stroke-width:2;stroke-linecap:round;stroke-linejoin:round;stroke-miterlimit:10;}
	.st2{fill:#EDEDED;stroke:#3F4749;stroke-width:2;stroke-linecap:round;stroke-linejoin:round;stroke-miterlimit:10;}
	.st3{fill:#FFFFFF;stroke:#3F4749;stroke-width:2;stroke-linecap:round;stroke-linejoin:round;stroke-miterlimit:10;}
	.st4{fill:#545C5E;stroke:#3F4749;stroke-width:2;stroke-linecap:round;stroke-linejoin:round;stroke-miterlimit:10;}
	.st5{fill:#7FEFD2;stroke:#3F4749;stroke-width:2;stroke-linecap:round;stroke-linejoin:round;stroke-miterlimit:10;}
	.st6{fill:#D5DADB;stroke:#3F4749;stroke-width:2;stroke-linecap:round;stroke-linejoin:round;stroke-miterlimit:10;}
	.st7{fill:#22ABFF;stroke:#3F4749;stroke-width:2;stroke-linecap:round;stroke-linejoin:round;stroke-miterlimit:10;}
	.st8{fill:#FFBD66;stroke:#3F4749;stroke-width:2;stroke-linecap:round;stroke-linejoin:round;stroke-miterlimit:10;}
	.st9{fill:#FF64BD;stroke:#3F4749;stroke-width:2;stroke-linecap:round;stroke-linejoin:round;stroke-miterlimit:10;}
	.st10{fill:#3F4749;stroke:#3F4749;stroke-width:2;stroke-linecap:round;stroke-linejoin:round;stroke-miterlimit:10;}
</style>
<g id="XMLID_1_">
	<path id="XMLID_6_" class="st0" d="M669.9,0.5c-1.5-0.4-3-0.5-4.6-0.5c-9.2,0-16.9,6.2-19.1,14.7c-1.5-0.6-3.1-0.9-4.7-0.9
		c-7.1,0-12.8,5.7-12.8,12.8s5.7,12.8,12.8,12.8H652"/>
	<path id="XMLID_5_" class="st0" d="M682,9.3c-1.9-3.1-4.7-5.6-7.9-7.2"/>
	<path id="XMLID_4_" class="st0" d="M695.9,20.3c-1.8-1.5-4.1-2.3-6.7-2.3c-1.5,0-3,0.3-4.3,0.9c-0.1-2.1-0.5-4.2-1.2-6.1"/>
	<path id="XMLID_3_" class="st0" d="M665.2,39.5h24.1c5.9,0,10.7-4.8,10.7-10.7"/>
	<line id="XMLID_2_" class="st0" x1="655.6" y1="39.5" x2="661.5" y2="39.5"/>
</g>
<path id="XMLID_171_" class="st1" d="M494.4,169.6c-5.4-1.5-12.9-2.4-21.2-2.4s-15.9,0.9-21.2,2.4h-8.3v5.4c0,4.3,13.2,7.8,29.5,7.8
	c16.3,0,29.5-3.5,29.5-7.8v-5.4H494.4z"/>
<ellipse id="XMLID_167_" class="st2" cx="473.2" cy="169.6" rx="29.5" ry="7.8"/>
<path id="XMLID_158_" class="st3" d="M377,134.7c0,12.2,9.9,22.1,22.1,22.1h148.1c12.2,0,22.1-9.9,22.1-22.1v-0.5H377V134.7z"/>
<path id="XMLID_160_" class="st4" d="M547.2,21.2H399.1c-12.2,0-22.1,9.9-22.1,22.1v90.9h192.2V43.3
	C569.3,31.1,559.4,21.2,547.2,21.2z"/>
<g id="XMLID_153_">
	<path id="XMLID_159_" class="st5" d="M387,134.2V43.3c0-6.7,5.4-12.1,12.1-12.1h148.1c6.7,0,12.1,5.4,12.1,12.1v90.9H387z"/>
	<path id="XMLID_157_" class="st5" d="M387,134.2V43.3c0-6.7,5.4-12.1,12.1-12.1h148.1c6.7,0,12.1,5.4,12.1,12.1v90.9H387z"/>
</g>
<circle id="XMLID_156_" class="st6" cx="473.2" cy="145.1" r="3.8"/>
<g id="XMLID_162_">
	<line id="XMLID_165_" class="st0" x1="453.2" y1="75.8" x2="467.1" y2="61.9"/>
	<line id="XMLID_164_" class="st0" x1="479.2" y1="75.8" x2="493.2" y2="61.9"/>
	<line id="XMLID_163_" class="st0" x1="460.7" y1="81.3" x2="485.6" y2="56.4"/>
</g>
<rect id="XMLID_166_" x="458" y="156.8" class="st2" width="30.4" height="12.8"/>
<path id="XMLID_23_" class="st0" d="M111.2,130.1h46.2c11.4,0,20.6-9.2,20.6-20.6c0-11.4-9.2-20.6-20.6-20.6c-2.9,0-5.7,0.6-8.3,1.7
	c-0.9-20.1-17.4-36.2-37.8-36.2c-17.6,0-32.3,12-36.6,28.2c-2.8-1.1-5.9-1.7-9.1-1.7c-13.6,0-24.6,11-24.6,24.6s11,24.6,24.6,24.6
	h20.2"/>
<line id="XMLID_22_" class="st0" x1="68.8" y1="130.1" x2="80.3" y2="130.1"/>
<path id="XMLID_8_" class="st0" d="M735.8,159.1l46.2,0.5c11.4,0.1,20.7-9,20.8-20.4c0.1-11.4-9-20.7-20.4-20.8
	c-2.9,0-5.7,0.6-8.3,1.6c-0.6-20.1-17-36.4-37.4-36.6c-17.5-0.2-32.4,11.6-36.9,27.8c-2.8-1.1-5.8-1.8-9-1.8
	c-13.6-0.2-24.7,10.7-24.9,24.3c-0.2,13.6,10.7,24.7,24.3,24.9l20.2,0.2"/>
<g id="XMLID_47_">
	<path id="XMLID_29_" class="st0" d="M231.5,13.7c2-0.5,4-0.7,6.1-0.7c12.1,0,22.3,8.3,25.3,19.4c1.9-0.8,4-1.2,6.3-1.2
		c9.4,0,17,7.6,17,17s-7.6,17-17,17h-13.9"/>
	<path id="XMLID_30_" class="st0" d="M215.4,25.3c2.5-4.1,6.2-7.4,10.5-9.6"/>
	<path id="XMLID_27_" class="st0" d="M197,39.8c2.4-1.9,5.5-3.1,8.8-3.1c2,0,4,0.4,5.7,1.2c0.1-2.8,0.7-5.5,1.6-8.1"/>
	<path id="XMLID_26_" class="st0" d="M237.7,65.2h-31.9c-7.9,0-14.2-6.4-14.2-14.2"/>
	<line id="XMLID_24_" class="st0" x1="250.4" y1="65.2" x2="242.5" y2="65.2"/>
</g>
<g id="XMLID_128_">
	<polygon id="XMLID_114_" class="st3" points="393.8,199.4 323.5,199.5 311.3,187.3 311.3,82 393.8,82 	"/>
	<polygon id="XMLID_120_" class="st6" points="311.3,187.3 323.5,199.5 323.5,187.3 	"/>
	<line id="XMLID_121_" class="st0" x1="329.2" y1="96.4" x2="352.6" y2="96.4"/>
	<line id="XMLID_122_" class="st0" x1="329.2" y1="100.9" x2="352.6" y2="100.9"/>
	<line id="XMLID_123_" class="st0" x1="329.2" y1="105.5" x2="352.6" y2="105.5"/>
	<line id="XMLID_124_" class="st0" x1="329.2" y1="110" x2="352.6" y2="110"/>
	<line id="XMLID_125_" class="st0" x1="329.2" y1="121.7" x2="377" y2="121.7"/>
	<line id="XMLID_126_" class="st0" x1="329.2" y1="127.1" x2="377" y2="127.1"/>
	<line id="XMLID_127_" class="st0" x1="329.2" y1="132.4" x2="377" y2="132.4"/>
	<line id="XMLID_132_" class="st0" x1="329.2" y1="159.1" x2="377" y2="159.1"/>
	<line id="XMLID_133_" class="st0" x1="329.2" y1="164.4" x2="377" y2="164.4"/>
	<line id="XMLID_134_" class="st0" x1="329.2" y1="169.8" x2="377" y2="169.8"/>
	<circle id="XMLID_119_" class="st7" cx="336.3" cy="144.7" r="7.1"/>
	<circle id="XMLID_129_" class="st8" cx="372.3" cy="144.7" r="4.7"/>
	<polygon id="XMLID_130_" class="st9" points="349.2,151.3 356,139.3 362.8,151.3 	"/>
</g>
<g>
	<path id="XMLID_19_" class="st3" d="M321.3,214.2l-45.2,8.3c-7.1,1.3-13.8-3.4-15.1-10.4l-14.6-79.7c-1.3-7.1,3.4-13.8,10.4-15.1
		L302,109c7.1-1.3,13.8,3.4,15.1,10.4l14.6,79.7C333,206.2,328.3,212.9,321.3,214.2z"/>
	
		<rect id="XMLID_25_" x="258" y="130.8" transform="matrix(0.9836 -0.1803 0.1803 0.9836 -25.1443 54.8111)" class="st5" width="62" height="70"/>
	
		<ellipse id="XMLID_28_" transform="matrix(0.9836 -0.1803 0.1803 0.9836 -32.8861 56.9694)" class="st2" cx="297" cy="209.4" rx="4.6" ry="4.6"/>
	
		<ellipse id="XMLID_33_" transform="matrix(0.9836 -0.1803 0.1803 0.9836 -16.776 55.4514)" class="st10" cx="296.7" cy="120" rx="1.8" ry="1.8"/>
	
		<rect id="XMLID_31_" x="272" y="119.9" transform="matrix(0.9836 -0.1803 0.1803 0.9836 -17.5451 52.6926)" class="st1" width="18.4" height="5.9"/>
	<g id="XMLID_32_">
		<line id="XMLID_34_" class="st0" x1="277.3" y1="172.4" x2="284.4" y2="162.1"/>
		<line id="XMLID_36_" class="st0" x1="293.6" y1="169.4" x2="300.7" y2="159.1"/>
		<line id="XMLID_35_" class="st0" x1="282.6" y1="175" x2="295.4" y2="156.5"/>
	</g>
</g>
<g id="XMLID_131_">
	
		<rect id="XMLID_140_" x="402.6" y="110.4" transform="matrix(-1 8.367800e-03 -8.367800e-03 -1 813.8665 276.9358)" class="st5" width="7.4" height="59.5"/>
	<polygon id="XMLID_139_" class="st8" points="410.3,169.9 406.7,177.9 402.9,170 	"/>
	<polygon id="XMLID_138_" class="st10" points="408.1,174.7 405.2,174.8 406.7,177.9 	"/>
	<line id="XMLID_137_" class="st0" x1="406.1" y1="110.4" x2="406.6" y2="169.9"/>
	
		<rect id="XMLID_136_" x="402.4" y="107.1" transform="matrix(-1 8.367800e-03 -8.367800e-03 -1 813.0777 214.0905)" class="st1" width="7.4" height="3.4"/>
	
		<rect id="XMLID_135_" x="402.3" y="100.7" transform="matrix(-1 8.367800e-03 -8.367800e-03 -1 812.9561 204.4072)" class="st2" width="7.4" height="6.3"/>
</g>
<g>
	<path id="XMLID_151_" class="st3" d="M527.4,189l7.3-71.1c0.7-7.1,7.1-12.3,14.3-11.6l118.2,12.2c7.1,0.7,12.3,7.1,11.6,14.3
		l-7.3,71.1c-0.7,7.1-7.1,12.3-14.3,11.6L539,203.3C531.8,202.6,526.7,196.2,527.4,189z"/>
	
		<rect id="XMLID_150_" x="561.1" y="108" transform="matrix(-0.1028 0.9947 -0.9947 -0.1028 825.1989 -422.3925)" class="st5" width="83.9" height="105.8"/>
	
		<ellipse id="XMLID_149_" transform="matrix(0.1028 -0.9947 0.9947 0.1028 332.0774 677.356)" class="st2" cx="541.5" cy="154.6" rx="4.5" ry="4.5"/>
	
		<ellipse id="XMLID_148_" transform="matrix(0.1028 -0.9947 0.9947 0.1028 432.3573 810.3222)" class="st10" cx="665.4" cy="165.5" rx="2.4" ry="2.4"/>
	
		<ellipse id="XMLID_147_" transform="matrix(0.1028 -0.9947 0.9947 0.1028 421.6679 818.131)" class="st10" cx="664.4" cy="175.3" rx="1.4" ry="1.4"/>
	
		<ellipse id="XMLID_152_" transform="matrix(0.1028 -0.9947 0.9947 0.1028 415.2258 822.8372)" class="st10" cx="663.7" cy="181.2" rx="1.4" ry="1.4"/>
	<g id="XMLID_143_">
		<line id="XMLID_146_" class="st0" x1="620.8" y1="156.8" x2="607.7" y2="167.4"/>
		<line id="XMLID_145_" class="st0" x1="598.5" y1="154.5" x2="585.4" y2="165.1"/>
		<line id="XMLID_144_" class="st0" x1="614.9" y1="151.4" x2="591.3" y2="170.5"/>
	</g>
</g>
<line class="st0" x1="760" y1="51" x2="860" y2="51"/>
<line class="st0" x1="629" y1="69" x2="649" y2="69"/>
<line class="st0" x1="0" y1="17" x2="164" y2="17"/>
<line class="st0" x1="105" y1="163" x2="164" y2="163"/>
<line class="st0" x1="110" y1="34" x2="143" y2="34"/>
<line class="st0" x1="816" y1="92" x2="909" y2="92"/>
<line class="st0" x1="875" y1="101" x2="901" y2="101"/>
</svg>
